<?xml version="1.0" encoding="us-ascii" standalone="no"?><svg xmlns="http://www.w3.org/2000/svg" xmlns:xlink="http://www.w3.org/1999/xlink" contentStyleType="text/css" height="92px" preserveAspectRatio="none" style="width:176px;height:92px;background:#FFFFFF;" version="1.1" viewBox="0 0 176 92" width="176px" zoomAndPan="magnify"><defs/><g><path d="M10,26.9167 C10,28.2053 11.0448,29.25 12.3333,29.25 L26.3333,29.25 C27.6219,29.25 28.6667,28.2053 28.6667,26.9167 L28.6667,17 C28.6667,15.7114 27.6219,14.6667 26.3333,14.6667 L21.0833,14.6667 C19.0055,14.6667 19.3333,11.75 16.1612,11.75 L12.3333,11.75 C11.0448,11.75 10,12.7948 10,14.0833 L10,26.9167 " fill="#226699" style="stroke:;stroke-width:0.0;stroke-dasharray:;"/><path d="M28.8627,17 L25.0348,17 C21.8627,17 21.8948,19.9167 19.8169,19.9167 L14.5669,19.9167 C13.2783,19.9167 12.1274,20.9614 11.9968,22.25 L11.7092,24.5098 L11.4035,26.9167 L11.3918,26.9155 C11.3242,27.2696 10.9998,27.4983 10.6335,27.4983 C10.2584,27.4983 9.9883,27.2025 10.007,26.8309 C10.0058,26.8601 10,26.8875 10,26.9167 C10,28.0857 10.8622,29.0447 11.9833,29.2144 C12.0866,29.2366 12.1998,29.25 12.3333,29.25 L27.5,29.25 C28.7886,29.25 29.9395,28.2053 30.0702,26.9167 L30.9586,19.3333 C31.0898,18.0448 30.1513,17 28.8627,17 " fill="#55ACEE" style="stroke:;stroke-width:0.0;stroke-dasharray:;"/><text fill="#000000" font-family="Courier" font-size="14" lengthAdjust="spacing" textLength="88" x="31" y="29.4482">hello-world</text><path d="M49.9088,40.3418 L44.6588,35.0918 C44.4482,34.8813 44.1559,34.75 43.8333,34.75 C43.1893,34.75 42.6673,35.2727 42.6667,35.9167 C42.6667,36.2387 42.7973,36.5309 43.0085,36.7421 L40.7574,38.9932 L46.0074,44.2432 L48.2585,41.9921 C48.4697,42.2027 48.7613,42.3333 49.0833,42.3333 C49.7273,42.3333 50.2506,41.8107 50.25,41.1667 C50.25,40.8447 50.1193,40.553 49.9088,40.3418 " fill="#E1E8ED" style="stroke:;stroke-width:0.0;stroke-dasharray:;"/><path d="M43.8333,34.75 L35.0833,34.75 C33.7948,34.75 32.75,35.7948 32.75,37.0833 L32.75,53.4167 C32.75,54.7053 33.7948,55.75 35.0833,55.75 L47.9167,55.75 C49.2053,55.75 50.25,54.7053 50.25,53.4167 L50.25,41.1667 L45,41.1667 C44.4167,41.1667 43.8333,40.5833 43.8333,40 L43.8333,34.75 " fill="#CCD6DD" style="stroke:;stroke-width:0.0;stroke-dasharray:;"/><path d="M43.8333,34.75 L42.6667,34.75 L42.6667,40 C42.6667,41.2886 43.7114,42.3333 45,42.3333 L50.25,42.3333 L50.25,41.1667 L45,41.1667 C44.4167,41.1667 43.8333,40.5833 43.8333,40 L43.8333,34.75 M40.9167,39.4167 C40.9167,39.7387 40.6553,40 40.3333,40 L35.6667,40 C35.3447,40 35.0833,39.7387 35.0833,39.4167 C35.0833,39.0947 35.3447,38.8333 35.6667,38.8333 L40.3333,38.8333 C40.6553,38.8333 40.9167,39.0947 40.9167,39.4167 M40.9167,41.75 C40.9167,42.072 40.6553,42.3333 40.3333,42.3333 L35.6667,42.3333 C35.3447,42.3333 35.0833,42.072 35.0833,41.75 C35.0833,41.428 35.3447,41.1667 35.6667,41.1667 L40.3333,41.1667 C40.6553,41.1667 40.9167,41.428 40.9167,41.75 M47.9167,44.0833 C47.9167,44.4053 47.6559,44.6667 47.3333,44.6667 L35.6667,44.6667 C35.3447,44.6667 35.0833,44.4053 35.0833,44.0833 C35.0833,43.7613 35.3447,43.5 35.6667,43.5 L47.3333,43.5 C47.6559,43.5 47.9167,43.7613 47.9167,44.0833 M47.9167,46.4167 C47.9167,46.7393 47.6559,47 47.3333,47 L35.6667,47 C35.3447,47 35.0833,46.7393 35.0833,46.4167 C35.0833,46.0941 35.3447,45.8333 35.6667,45.8333 L47.3333,45.8333 C47.6559,45.8333 47.9167,46.0941 47.9167,46.4167 M47.9167,48.75 C47.9167,49.0726 47.6559,49.3333 47.3333,49.3333 L35.6667,49.3333 C35.3447,49.3333 35.0833,49.0726 35.0833,48.75 C35.0833,48.4274 35.3447,48.1667 35.6667,48.1667 L47.3333,48.1667 C47.6559,48.1667 47.9167,48.4274 47.9167,48.75 M47.9167,51.0833 C47.9167,51.4059 47.6559,51.6667 47.3333,51.6667 L35.6667,51.6667 C35.3447,51.6667 35.0833,51.4059 35.0833,51.0833 C35.0833,50.7608 35.3447,50.5 35.6667,50.5 L47.3333,50.5 C47.6559,50.5 47.9167,50.7608 47.9167,51.0833 " fill="#99AAB5" style="stroke:;stroke-width:0.0;stroke-dasharray:;"/><text fill="#000000" font-family="Courier" font-size="14" lengthAdjust="spacing" textLength="112" x="52" y="54.1982">CMakeLists.txt</text><path d="M49.9088,65.0918 L44.6588,59.8418 C44.4482,59.6313 44.1559,59.5 43.8333,59.5 C43.1893,59.5 42.6673,60.0227 42.6667,60.6667 C42.6667,60.9887 42.7973,61.2809 43.0085,61.4921 L40.7574,63.7432 L46.0074,68.9932 L48.2585,66.7421 C48.4697,66.9527 48.7613,67.0833 49.0833,67.0833 C49.7273,67.0833 50.2506,66.5607 50.25,65.9167 C50.25,65.5947 50.1193,65.303 49.9088,65.0918 " fill="#E1E8ED" style="stroke:;stroke-width:0.0;stroke-dasharray:;"/><path d="M43.8333,59.5 L35.0833,59.5 C33.7948,59.5 32.75,60.5448 32.75,61.8333 L32.75,78.1667 C32.75,79.4553 33.7948,80.5 35.0833,80.5 L47.9167,80.5 C49.2053,80.5 50.25,79.4553 50.25,78.1667 L50.25,65.9167 L45,65.9167 C44.4167,65.9167 43.8333,65.3333 43.8333,64.75 L43.8333,59.5 " fill="#CCD6DD" style="stroke:;stroke-width:0.0;stroke-dasharray:;"/><path d="M43.8333,59.5 L42.6667,59.5 L42.6667,64.75 C42.6667,66.0386 43.7114,67.0833 45,67.0833 L50.25,67.0833 L50.25,65.9167 L45,65.9167 C44.4167,65.9167 43.8333,65.3333 43.8333,64.75 L43.8333,59.5 M40.9167,64.1667 C40.9167,64.4887 40.6553,64.75 40.3333,64.75 L35.6667,64.75 C35.3447,64.75 35.0833,64.4887 35.0833,64.1667 C35.0833,63.8447 35.3447,63.5833 35.6667,63.5833 L40.3333,63.5833 C40.6553,63.5833 40.9167,63.8447 40.9167,64.1667 M40.9167,66.5 C40.9167,66.822 40.6553,67.0833 40.3333,67.0833 L35.6667,67.0833 C35.3447,67.0833 35.0833,66.822 35.0833,66.5 C35.0833,66.178 35.3447,65.9167 35.6667,65.9167 L40.3333,65.9167 C40.6553,65.9167 40.9167,66.178 40.9167,66.5 M47.9167,68.8333 C47.9167,69.1553 47.6559,69.4167 47.3333,69.4167 L35.6667,69.4167 C35.3447,69.4167 35.0833,69.1553 35.0833,68.8333 C35.0833,68.5113 35.3447,68.25 35.6667,68.25 L47.3333,68.25 C47.6559,68.25 47.9167,68.5113 47.9167,68.8333 M47.9167,71.1667 C47.9167,71.4893 47.6559,71.75 47.3333,71.75 L35.6667,71.75 C35.3447,71.75 35.0833,71.4893 35.0833,71.1667 C35.0833,70.8441 35.3447,70.5833 35.6667,70.5833 L47.3333,70.5833 C47.6559,70.5833 47.9167,70.8441 47.9167,71.1667 M47.9167,73.5 C47.9167,73.8226 47.6559,74.0833 47.3333,74.0833 L35.6667,74.0833 C35.3447,74.0833 35.0833,73.8226 35.0833,73.5 C35.0833,73.1774 35.3447,72.9167 35.6667,72.9167 L47.3333,72.9167 C47.6559,72.9167 47.9167,73.1774 47.9167,73.5 M47.9167,75.8333 C47.9167,76.1559 47.6559,76.4167 47.3333,76.4167 L35.6667,76.4167 C35.3447,76.4167 35.0833,76.1559 35.0833,75.8333 C35.0833,75.5108 35.3447,75.25 35.6667,75.25 L47.3333,75.25 C47.6559,75.25 47.9167,75.5108 47.9167,75.8333 " fill="#99AAB5" style="stroke:;stroke-width:0.0;stroke-dasharray:;"/><text fill="#000000" font-family="Courier" font-size="14" lengthAdjust="spacing" textLength="72" x="52" y="78.9482">hello.cpp</text><!--SRC=[LOv1Jy9048Nl-olc28SM8MWC9oAeIMqZ4SjzQ8UwOJlJxCuM_VUk6cEylSnxttkp3efUJzPHCBCtSawoYtZNpZOLdgcqGKEkx_hV-zPvCmncJTp-m6RdaBMkIXZ91oiCytnnjLZcrqTId4zgFhDS61hfXmI0sfwcPlAuAo58z0r1cyQyFKPDyDGKE2AyHFxAhU1v82wsJxy7kEVHUk6UM4rngFu2DylipYhioQStu52PBPqmEar48wtbRWNrwqDsQqhaBcANkedDHbAl_qZU_XC0]--></g></svg>